<?xml version="1.0" encoding="UTF-8"?>
<svg id="Layer_2" data-name="Layer 2" xmlns="http://www.w3.org/2000/svg" viewBox="0 0 598.14 399.32">
  <defs>
    <style>
      .cls-1 {
        fill: #c7a26e;
      }
    </style>
  </defs>
  <g id="Layer_2-2" data-name="Layer 2">
    <g>
      <g>
        <g>
          <path class="cls-1" d="M329.82,25.29c1.94-2.03,4.23-3.4,6.62-3.95l.31-.07.3-1.14-.26-.22c-1.82-1.54-3.16-3.72-3.87-6.33l-.08-.29-1.34-.35-.21.21c-2.06,1.97-4.23,3.23-6.27,3.66l-.32.07-.37,1.39.25.22c1.57,1.38,2.82,3.55,3.73,6.45l.09.28,1.21.32.22-.23Z"/>
          <path class="cls-1" d="M316.72,45.03c2.31-1.61,4.82-2.49,7.27-2.56h.32s.52-1.06.52-1.06l-.21-.26c-1.48-1.87-2.36-4.28-2.54-6.97l-.02-.3-1.24-.61-.25.16c-2.41,1.52-4.78,2.33-6.87,2.34h-.33s-.64,1.29-.64,1.29l.2.26c1.26,1.66,2.06,4.04,2.37,7.06l.03.29,1.13.56.26-.18Z"/>
          <path class="cls-1" d="M345.73,49.57c3-3.14,6.53-5.25,10.22-6.11l.48-.11.47-1.76-.4-.33c-2.82-2.37-4.89-5.75-5.98-9.78l-.12-.45-2.06-.55-.33.32c-3.18,3.04-6.53,4.99-9.69,5.65l-.5.1-.57,2.14.38.33c2.42,2.13,4.36,5.48,5.76,9.96l.13.43,1.87.5.33-.35Z"/>
        </g>
        <path class="cls-1" d="M249.55,113.22c-13.99-43.63,8.97-92.14,57-107.68,5.45-1.76,10.95-2.9,16.43-3.5-16.24-3.34-33.54-2.69-50.45,2.74-52.46,16.83-81.35,73-64.52,125.46,16.83,52.46,73,81.35,125.46,64.52,28.85-9.25,50.54-30.41,61.45-56.3-9.66,11.32-22.6,19.84-37.7,25.06-48.43,16.78-93.68-6.68-107.68-50.3Z"/>
        <g>
          <path class="cls-1" d="M354.07,147.45l-3.99-27.5c2.91-.96,5.34-2.94,7.07-5.82,1.88-3.12,2.62-6.91,2.06-10.76l-7.66-39.43-22.68,2.56,3.86,39.94c.55,3.77,2.35,7.28,5.06,9.88,2.5,2.4,5.41,3.78,8.5,4.06l3.99,27.5c-.48,1.17-2.75,5.46-10.37,6.32l.51,3.5,26-2.93-.51-3.5c-7.63.86-11.05-2.8-11.84-3.82ZM340.54,113.9c-2.14-2.06-3.57-4.86-4-7.81l-3.53-36.5,15.44-1.74,7,36.02c.44,3.03-.15,6.06-1.63,8.53-1.49,2.47-3.51,3.99-6.01,4.5l-.15.02c-2.57.06-4.96-.96-7.11-3.02ZM351.3,152.92c.57-.58,1.03-1.15,1.4-1.68.51.43,1.12.88,1.83,1.31l-3.23.36Z"/>
          <path class="cls-1" d="M352.61,101.9l-.63-4.48-14.59-2.91,1.36,9.37s1.01,10.65,8.57,9.8c7.56-.85,5.29-11.78,5.29-11.78Z"/>
        </g>
        <g>
          <path class="cls-1" d="M277,145.4l-1.08,3.4,25.15,6.45,1.08-3.4c-7.37-1.89-8.9-6.46-9.18-7.68l8.5-26.71c3.09.14,6.2-.83,9.06-2.86,3.1-2.21,5.46-5.44,6.63-9.1l10.43-39.06-21.94-5.63-14.09,38.03c-1.19,3.74-1.09,7.6.25,10.95,1.23,3.09,3.3,5.38,6.01,6.73l-8.5,26.71c-.96.91-4.93,4.06-12.31,2.17ZM300.72,113.85l-.15-.04c-2.38-.85-4.12-2.63-5.18-5.28-1.06-2.65-1.13-5.73-.2-8.67l12.87-34.75,14.93,3.83-9.53,35.69c-.92,2.86-2.79,5.45-5.24,7.19-2.46,1.75-4.99,2.43-7.51,2.03ZM288.01,148.23c.78-.33,1.45-.69,2.03-1.05.28.58.64,1.21,1.1,1.85l-3.13-.8Z"/>
          <path class="cls-1" d="M298.31,98.29l1.37-4.36,14.87-.9-2.9,9.1s-2.76,10.42-10.08,8.54c-7.32-1.88-3.26-12.39-3.26-12.39Z"/>
        </g>
      </g>
      <g>
        <g>
          <g>
            <path class="cls-1" d="M440.54,320.7c-18.63,1.41-34.98-13.98-36.52-34.37-.21-2.81-.12-5.56.22-8.23-4.38,6.77-6.69,15.22-6.01,24.19,1.54,20.39,17.9,35.78,36.52,34.37,16.06-1.22,28.56-14.53,30.71-31.25-5.57,8.61-14.5,14.5-24.92,15.29Z"/>
            <path class="cls-1" d="M441.23,293.11c-2.92-1.61-5.19-3.82-6.55-6.39l-.18-.33h-1.4l-.17.36c-1.21,2.56-3.31,4.76-6.08,6.37l-.31.18v1.64l.3.18c2.88,1.76,4.99,3.87,6.1,6.08l.17.35h1.7l.17-.35c1.11-2.22,3.22-4.32,6.27-6.24l.29-.18v-1.49l-.33-.18Z"/>
          </g>
          <g>
            <path class="cls-1" d="M464.32,364.29c-1.52.14-2.96.27-4.5.27-11.57,0-24.01-4.09-41.6-13.69-1.56-.82-3.1-1.63-4.62-2.44-14.14-7.5-27.5-14.59-46.05-15.83v-90.77c0-4.77,2.53-9.57,8.18-9.57h.94v-2.49h-29.39v2.49h.63c6.38,0,8.65,5.1,8.65,9.88v82.22c-.13,4.34-2.17,9.14-7.41,9.59h-.46c-.16,0-.3.05-.39.1-.1-.05-.23-.1-.39-.1h-.63v2.65h3.72c24,.14,40.09,8.68,55.66,16.93l2.33,1.24c12.63,6.46,26.99,12.44,46.35,12.44,3.09,0,6.19-.15,9.49-.47l.57-.05v-2.5l-1.08.1Z"/>
            <g>
              <path class="cls-1" d="M217.9,331.14l-.02-.03c-1.24-1.65-1.88-3.65-2.04-6.27,0-8.44,0-17.16-.15-25.66v-9.26l-10.84,13.99v20.43c-.15,2.64-.78,4.82-1.9,6.64-1.23,1.78-3.04,2.67-5.7,2.82l-.59.03v2.46h27.23v-2.46l-.59-.03c-2.53-.15-4.29-1.02-5.39-2.66Z"/>
              <path class="cls-1" d="M252.77,268.3c-2.74-2.9-6.01-4.37-9.73-4.37-1.31,0-2.75.17-4.18.48-5.47,1.41-10.45,3.87-15.22,7.53-3.6,2.76-6.27,5.41-7.96,7.9v-7.25c0-2.82-.92-5.6-2.74-8.24l-.19-.27h-1.89l-.15.09c-3.59,2.1-7.55,3.16-11.74,3.16h-2.33v2.49h1.25c4.8,0,6.95,1.9,6.95,6.17v19.61c-4.3,7.24-9.19,14.18-14.54,20.64-3.77,4.5-7.31,7.84-10.51,9.92-3.14,1.95-7.42,3.16-12.65,3.62-.5,0-1.01.04-1.49.08-.4.04-.79.07-1.14.07-5.78,0-10.74-1.57-14.77-4.66-5.05-3.83-8.47-9.23-10.43-16.46-.3-1.64-.61-3.34-.61-4.83,0-5.14,2.52-8.62,7.28-10.06,4.15-1.23,8.75-1.83,14.01-1.83l3.43.16h7.88c4.07,0,7.83-.16,10.9-.47,4.14-.5,6.58-1.68,7.48-3.67.44-1.33.65-2.62.65-4.06,0-2.18-.53-4.15-1.63-6.03-1.59-2.76-3.72-5.19-6.49-7.44-6.14-4.88-13.04-7.25-21.1-7.25-10.33,0-18.27,3.31-24.27,10.1-6.11,6.73-9.28,15.71-9.44,26.71.16,11.19,3.39,20.18,9.59,26.69,6.08,6.7,14.19,10.1,24.13,10.1,6-.16,10.99-1.33,14.82-3.48,4-2.24,7.8-5.46,11.3-9.57,6.83-7.87,13.14-16.58,18.74-25.86l9.56-13.72c.63-.78,1.11-1.43,1.6-2.24.6-1.05,1.2-1.96,1.8-2.7,2.19-2.7,4.83-5.03,8-7.11,1.84-.99,3.71-1.47,5.73-1.47,1.58,0,3.04.27,4.73.89,3.59,1.29,6.02,3.31,7.21,6l.41.93,8.11-9.87-.38-.4ZM136.99,299.43c-.05-.58-.1-1.2-.14-1.87-.3-2.44-.46-4.44-.46-5.91.61-10.03,3.53-16.84,8.7-20.24,5.12-3.62,10.36-5.45,15.56-5.45,1.2,0,2.44.15,3.61.3,6.43,1.05,10.94,3.88,13.78,8.67l.1.12c.59.59,1.04,1.46,1.39,2.67.28.99.44,2.03.44,2.92v1.06c-.14,3.74-1.81,5.98-5.07,6.83-3.73.81-7.69,1.22-11.77,1.22h-2.78c-5.34,0-10.34.63-14.88,1.89-2.51.84-4.57,2.16-6.29,4.04-.95,1.04-1.68,2.29-2.17,3.76Z"/>
            </g>
            <path class="cls-1" d="M316,329.47c-5.8,0-8.34-.76-8.34-8.03v-22.1l-1.25-.1c-.81,5-3.77,7.85-10.56,10.17l-.76.26.43.67c.99,1.55,1.45,3.11,1.45,4.92,0,8.48-11.63,17.23-18.95,18.24-.88.15-1.6.15-2.52.15-8,0-13.52-5.41-14.06-13.75v-.93c0-5.14,3.08-14.7,23.65-21.03l1.46-.38c9.34-2.42,20.96-5.42,20.96-16.77,0-.79,0-1.61-.17-2.45-.99-4.47-3-7.31-6.91-9.82-.96-.64-1.92-1.12-2.87-1.59-4.16-1.93-9.63-3-15.42-3-11.01.18-20.37,4.21-25.68,11.06l-.13.17v10.73l1.22-3.67c3.07-9.21,12.42-15.65,22.75-15.65h.77c10.5,0,15.6,4.95,15.6,15.14,0,10.91-10.79,13.27-21.22,15.54-5.01,1.09-10.2,2.22-14.01,4.31-6.43,3.54-10.37,9.98-10.53,17.24v.31c0,6.57,4.05,12.42,10.58,15.26,3.57,1.55,7.98,2.37,12.78,2.37,9.2-.14,17.42-4.83,22.4-12.67v.94c.33,6.52,1.49,10.28,3.56,11.49l.15.09h1.98l.18-.18c.7-.7,2.26-2.05,4.71-3.1,2.55-.91,5.06-1.35,7.67-1.35h1.71v-2.49h-.63Z"/>
            <path class="cls-1" d="M595.5,306.13l-.09.52c-3.35,18.67-17.35,22.51-25.45,23.14-.88.15-1.92.15-2.83.15-12.21,0-20.6-7.27-24.28-21.01-.52-2.06-.75-3.63-.75-4.95,0-4.69,2.5-7.94,7.63-9.92,4.84-1.81,11.77-1.81,18.48-1.81h6.34c9.57,0,17.6-.31,18.98-4.12.46-1.23.66-2.36.66-3.78,0-6.47-5.79-11.79-8.26-13.77-5.49-4.75-12.6-7.25-21.12-7.42h-.62c-19.57,0-33.24,15.2-33.24,36.95v.31c0,21.67,13.67,36.8,33.24,36.8h.63c20.14-.5,31.2-15.62,33.22-30.38l.1-.71h-2.64ZM540.49,299.75c-.31-2.95-.56-6.42-.56-8.13.32-12.7,7.89-25.51,24.1-25.51,8.03,0,15.03,3.45,17.89,8.86,1.11,1.53,1.89,4.3,1.89,6.72-.27,7.8-8.76,7.98-18.59,8.19-5.65.12-11.5.25-16.23,1.9-4.34,1.5-7.22,4.22-8.5,7.97Z"/>
            <path class="cls-1" d="M141.84,230.5c-.44-.45-1.07-.73-1.76-.73h-18.37c-1.38,0-2.5,1.11-2.5,2.49v.11l.59.04c4.84.3,6.99,1.91,6.99,5.25,0,.9-.24,2.16-.73,3.81l-6.96,19.47-3.25,8.83-.45,1.37-17.63,48.14c-.8,2.22-3.97,2.17-4.71-.08-1.07-3.28-2.14-6.57-3.22-9.88-2.7-8.03-5.37-16.06-8.03-24.09-2.66-8.04-5.33-16.09-8.04-24.13l-6.48-19.62c-.15-.5-.83-2.6-1.11-3.09-2.31-4.05-5.89-6.41-10.34-7.88-1.22-.41-2.95-.75-4.24-.75h-7.48c-.05,0-.11.01-.16.02,0,0,0-.01.01-.01-27.15,0-43.95,12.08-43.95,26.42,0,22.72,32.76,26.44,32.76,26.44l.35-1.57s-16.15-7.69-16.15-23.64c0-11.4,11.54-24.95,25.52-25.15,5.55.11,10.68,4.07,12.6,9.72l29.08,87.84,2.35,6.47c.04.09.11.14.2.14h7.73c.09,0,.16-.05.2-.13l2.87-7.55,32.2-88.54c2.04-4.91,6.74-7.97,12.24-7.97h.63c0-.69-.28-1.32-.73-1.76Z"/>
          </g>
          <path class="cls-1" d="M530.95,334.64c-5.37-.17-7.44-5.1-7.58-9.25v-42.06c-.92-13.49-11.28-19.63-20.51-19.63h-1.36c-5.15.17-10.51,2.3-15.08,5.99-2.92,2.25-6.18,5.11-8.78,9.41v-15.4h-2l-.13.09c-4.02,2.85-12.08,3.27-16.52,3.27h-.5v2.16l.48.02c5.15.16,7.75,2.76,7.75,7.74v47.9c-.16,4.72-2.27,9.77-7.74,9.77h-.5v2.18h27.23v-2.18h-.5c-4.98,0-7.42-4.8-7.57-9.25v-42.72c3.75-5.69,7.9-9.66,12.31-11.79,3.58-1.53,7.02-2.31,10.23-2.31,2.96,0,5.67.74,7.61,2.09,4.26,3,4.83,9.12,4.83,14.72l-.17,39.49c-.16,4.72-2.27,9.77-7.74,9.77h-.5v2.18h27.23v-2.16l-.48-.02Z"/>
        </g>
        <g>
          <g>
            <path class="cls-1" d="M221.85,367.52h19.05v2.64h-16.15v11.09h15.14v2.64h-15.14v12.14h16.85v2.64h-19.76v-31.15Z"/>
            <path class="cls-1" d="M241.73,398.79h-20.01v-31.4h19.3v2.89h-16.15v10.84h15.14v2.89h-15.14v11.89h16.85v2.89ZM221.98,398.54h19.51v-2.39h-16.85v-12.39h15.14v-2.39h-15.14v-11.34h16.15v-2.39h-18.8v30.9Z"/>
          </g>
          <g>
            <path class="cls-1" d="M251.29,378.34h2.99l6.78,17.47,6.6-17.47h2.68l-8.01,20.33h-2.73l-8.32-20.33Z"/>
            <path class="cls-1" d="M262.42,398.79h-2.9l-.03-.08-8.39-20.5h3.26l.03.08,6.66,17.16,6.52-17.24h2.95l-8.11,20.58ZM259.69,398.54h2.56l7.91-20.08h-2.41l-6.69,17.69-6.86-17.69h-2.72l8.21,20.08Z"/>
          </g>
          <g>
            <path class="cls-1" d="M299.42,394.84c-1.03,1.56-2.29,2.67-3.81,3.34-1.51.67-3.18,1.01-4.99,1.01-1.55,0-2.96-.26-4.22-.79-1.26-.53-2.35-1.27-3.26-2.22-.91-.95-1.61-2.08-2.09-3.39-.48-1.3-.73-2.75-.73-4.33s.25-2.93.75-4.22c.5-1.29,1.2-2.41,2.11-3.37.91-.95,1.98-1.7,3.21-2.24,1.23-.54,2.6-.81,4.09-.81s2.93.27,4.11.81c1.19.54,2.18,1.26,2.99,2.16.81.89,1.41,1.91,1.83,3.06.41,1.14.62,2.3.62,3.48v1.85h-17.07c0,.56.11,1.27.33,2.13.22.87.62,1.71,1.21,2.53s1.37,1.53,2.35,2.11c.98.59,2.25.88,3.81.88,1.35,0,2.65-.32,3.92-.97,1.26-.64,2.23-1.52,2.9-2.64l1.94,1.63ZM297.4,386.79c0-.91-.18-1.76-.55-2.55-.37-.79-.87-1.49-1.5-2.09-.63-.6-1.38-1.08-2.24-1.43-.87-.35-1.78-.53-2.75-.53-1.44,0-2.63.29-3.59.88-.95.59-1.71,1.26-2.27,2.02-.56.76-.95,1.5-1.19,2.22-.24.72-.35,1.21-.35,1.47h14.43Z"/>
            <path class="cls-1" d="M290.62,399.32c-1.56,0-3-.27-4.27-.8-1.27-.53-2.38-1.29-3.3-2.25-.92-.96-1.63-2.11-2.12-3.43-.49-1.31-.73-2.79-.73-4.38s.25-2.97.76-4.27c.5-1.3,1.22-2.45,2.14-3.41.91-.96,2.01-1.72,3.25-2.27,1.24-.55,2.64-.83,4.14-.83s2.96.28,4.17.83c1.2.55,2.22,1.28,3.03,2.19.81.9,1.44,1.95,1.85,3.1.41,1.15.62,2.34.62,3.52v1.97h-17.07c.02.53.12,1.19.32,1.98.22.85.62,1.69,1.19,2.49.57.8,1.35,1.5,2.32,2.08.96.57,2.22.86,3.74.86,1.32,0,2.62-.32,3.86-.96,1.23-.63,2.2-1.5,2.85-2.59l.08-.12,2.13,1.79-.06.09c-1.03,1.57-2.33,2.71-3.86,3.39-1.52.68-3.22,1.02-5.04,1.02ZM290.49,377.94c-1.47,0-2.83.27-4.04.8-1.21.53-2.28,1.28-3.17,2.22-.89.94-1.6,2.06-2.09,3.33-.49,1.27-.74,2.68-.74,4.18s.24,3,.72,4.29c.48,1.29,1.17,2.41,2.06,3.34.89.94,1.97,1.67,3.21,2.19,1.24.52,2.65.78,4.18.78,1.79,0,3.46-.34,4.94-1,1.45-.65,2.69-1.73,3.69-3.21l-1.74-1.46c-.68,1.07-1.65,1.93-2.88,2.56-1.27.65-2.61.98-3.97.98-1.57,0-2.87-.3-3.87-.9-.99-.59-1.8-1.31-2.39-2.15-.59-.83-1.01-1.69-1.23-2.57-.22-.87-.33-1.6-.33-2.17v-.12h17.07v-1.72c0-1.15-.21-2.31-.61-3.43-.4-1.12-1.01-2.14-1.8-3.02-.79-.88-1.79-1.59-2.95-2.13-1.17-.53-2.54-.8-4.06-.8ZM297.53,386.91h-14.68v-.12c0-.28.12-.78.36-1.51.24-.73.64-1.49,1.21-2.26.56-.77,1.34-1.46,2.3-2.06.97-.6,2.2-.9,3.65-.9.98,0,1.92.18,2.8.54.88.36,1.64.85,2.28,1.46.64.61,1.15,1.33,1.52,2.13.37.81.56,1.68.56,2.6v.12ZM283.1,386.66h14.17c-.02-.84-.2-1.64-.54-2.37-.36-.77-.85-1.46-1.47-2.05-.62-.59-1.36-1.06-2.21-1.4-.85-.34-1.76-.52-2.7-.52-1.41,0-2.59.29-3.52.86-.94.58-1.69,1.25-2.23,1.99-.55.75-.94,1.48-1.17,2.19-.2.6-.31,1.04-.34,1.31Z"/>
          </g>
          <g>
            <path class="cls-1" d="M312.89,384.06c0-.38-.01-.84-.04-1.39-.03-.54-.05-1.09-.07-1.65-.02-.56-.04-1.08-.07-1.56s-.04-.86-.04-1.12h2.64c.03.76.05,1.5.07,2.2s.05,1.16.11,1.36h.13c.53-1.12,1.41-2.08,2.64-2.88,1.23-.81,2.67-1.21,4.31-1.21s2.87.25,3.87.75c1,.5,1.78,1.15,2.35,1.96.57.81.97,1.74,1.19,2.79.22,1.06.33,2.14.33,3.26v12.1h-2.64v-11.97c0-.82-.07-1.62-.22-2.4-.15-.78-.4-1.47-.77-2.09-.37-.62-.88-1.11-1.54-1.47-.66-.37-1.52-.55-2.57-.55-.97,0-1.89.17-2.75.51-.87.34-1.61.85-2.24,1.54s-1.13,1.55-1.5,2.6c-.37,1.04-.55,2.27-.55,3.67v10.16h-2.64v-14.61Z"/>
            <path class="cls-1" d="M330.44,398.79h-2.89v-12.09c0-.81-.07-1.61-.22-2.38-.14-.76-.4-1.45-.75-2.05-.35-.59-.86-1.07-1.49-1.43s-1.48-.54-2.51-.54c-.95,0-1.86.17-2.7.5-.84.33-1.58.83-2.2,1.51-.62.67-1.11,1.53-1.47,2.55-.36,1.02-.54,2.24-.54,3.63v10.29h-2.89v-14.73c0-.38-.01-.84-.04-1.38-.03-.53-.05-1.08-.07-1.65-.02-.58-.04-1.09-.07-1.56-.03-.49-.04-.87-.04-1.13v-.12h2.89v.12c.03.76.06,1.5.07,2.2.01.54.04.94.07,1.17.54-1.07,1.42-2.01,2.62-2.79,1.25-.82,2.72-1.23,4.38-1.23s2.92.26,3.93.76c1.01.51,1.82,1.18,2.4,2,.58.82.99,1.77,1.21,2.84.22,1.06.33,2.17.33,3.28v12.22ZM327.8,398.54h2.39v-11.97c0-1.1-.11-2.19-.33-3.23-.22-1.03-.61-1.96-1.17-2.75-.56-.79-1.33-1.43-2.31-1.92-.98-.49-2.26-.73-3.82-.73s-3.04.4-4.24,1.19c-1.21.79-2.08,1.74-2.6,2.83l-.03.07h-.3l-.03-.09c-.06-.22-.1-.67-.12-1.4-.01-.67-.03-1.36-.06-2.08h-2.39c0,.25.02.58.04.99.03.47.05.98.07,1.57.01.57.04,1.12.07,1.65.03.54.04,1.01.04,1.39v14.48h2.39v-10.04c0-1.42.19-2.67.56-3.72.37-1.05.88-1.94,1.52-2.64.64-.7,1.41-1.23,2.29-1.57.88-.34,1.82-.52,2.8-.52,1.07,0,1.96.19,2.63.57.68.38,1.21.89,1.59,1.52.37.62.63,1.34.79,2.13.15.78.22,1.6.22,2.42v11.84Z"/>
          </g>
          <g>
            <path class="cls-1" d="M354.25,380.72h-5.81v13.24c0,.91.25,1.61.75,2.11.5.5,1.19.75,2.07.75.5,0,1-.07,1.52-.2.51-.13,1-.3,1.47-.51l.22,2.38c-.5.18-1.07.34-1.72.48s-1.22.22-1.72.22c-.94,0-1.75-.14-2.42-.42s-1.22-.65-1.63-1.12c-.41-.47-.71-1.02-.9-1.65-.19-.63-.29-1.31-.29-2.05v-13.24h-4.4v-2.38h4.4v-5.85h2.64v5.85h5.81v2.38Z"/>
            <path class="cls-1" d="M351.04,399.32c-.95,0-1.78-.14-2.47-.43-.69-.28-1.25-.67-1.67-1.16-.42-.48-.73-1.05-.93-1.7-.19-.64-.29-1.34-.29-2.08v-13.12h-4.4v-2.63h4.4v-5.85h2.89v5.85h5.81v2.63h-5.81v13.12c0,.87.24,1.55.71,2.02.47.47,1.14.71,1.98.71.48,0,.98-.07,1.49-.19.5-.13.99-.3,1.46-.5l.16-.07.24,2.65-.09.03c-.5.18-1.08.34-1.73.49-.65.15-1.24.22-1.74.22ZM341.52,380.59h4.4v13.37c0,.72.09,1.39.28,2.01.18.61.48,1.15.88,1.6.4.45.93.82,1.58,1.09.66.27,1.46.41,2.37.41.48,0,1.05-.07,1.69-.22.6-.14,1.14-.29,1.61-.45l-.2-2.11c-.43.18-.88.33-1.33.44-.52.13-1.04.2-1.55.2-.91,0-1.64-.26-2.16-.79-.52-.52-.78-1.26-.78-2.2v-13.37h5.81v-2.13h-5.81v-5.85h-2.39v5.85h-4.4v2.13Z"/>
          </g>
          <g>
            <path class="cls-1" d="M365.95,393.48c.56,1.09,1.38,1.91,2.46,2.49,1.08.57,2.23.86,3.43.86.56,0,1.11-.09,1.67-.26.56-.18,1.06-.42,1.5-.75.44-.32.8-.71,1.08-1.17.28-.45.42-.97.42-1.56,0-.94-.3-1.64-.9-2.11-.6-.47-1.34-.84-2.22-1.1-.88-.26-1.85-.49-2.9-.68-1.06-.19-2.02-.48-2.9-.88-.88-.4-1.62-.95-2.22-1.65s-.9-1.7-.9-2.99c0-1,.2-1.86.62-2.6s.95-1.34,1.61-1.83c.66-.48,1.4-.84,2.22-1.08.82-.23,1.66-.35,2.51-.35,1.67,0,3.12.31,4.33.92,1.22.62,2.16,1.58,2.84,2.9l-2.38,1.41c-.5-.94-1.12-1.65-1.87-2.13s-1.72-.73-2.93-.73c-.47,0-.96.07-1.47.22-.51.15-.98.35-1.39.62-.41.26-.76.6-1.03,1.01-.28.41-.42.88-.42,1.41,0,.91.3,1.58.9,2.02.6.44,1.34.79,2.22,1.03.88.25,1.85.46,2.9.64,1.06.18,2.02.46,2.9.86.88.4,1.62.97,2.22,1.72.6.75.9,1.81.9,3.19,0,1.06-.2,1.97-.59,2.75-.4.78-.94,1.43-1.63,1.96-.69.53-1.47.92-2.35,1.19-.88.26-1.8.4-2.77.4-1.76,0-3.37-.34-4.82-1.01-1.45-.67-2.57-1.72-3.37-3.12l2.33-1.58Z"/>
            <path class="cls-1" d="M371.8,399.32c-1.77,0-3.41-.34-4.87-1.02-1.47-.68-2.62-1.75-3.42-3.18l-.06-.1,2.54-1.73.06.13c.54,1.06,1.35,1.88,2.41,2.43,1.06.56,2.2.84,3.37.84.54,0,1.09-.09,1.63-.26.54-.17,1.04-.42,1.46-.73.42-.31.78-.69,1.05-1.13.27-.43.4-.94.4-1.5,0-.89-.29-1.57-.85-2.01-.59-.46-1.32-.82-2.18-1.08-.86-.26-1.84-.49-2.89-.68-1.06-.19-2.05-.49-2.93-.89-.89-.4-1.66-.97-2.27-1.68-.62-.72-.93-1.76-.93-3.07,0-1.02.21-1.91.63-2.66s.97-1.38,1.64-1.87c.67-.49,1.43-.86,2.26-1.1.83-.24,1.69-.36,2.54-.36,1.68,0,3.16.32,4.39.94,1.23.62,2.21,1.62,2.89,2.96l.05.1-2.59,1.53-.06-.12c-.49-.92-1.1-1.62-1.83-2.09-.72-.47-1.69-.71-2.86-.71-.45,0-.94.07-1.44.22-.5.14-.96.34-1.35.6-.39.25-.73.58-1,.98-.26.39-.4.84-.4,1.34,0,.86.29,1.51.85,1.92.59.43,1.32.77,2.18,1.01.87.25,1.84.46,2.89.63,1.06.18,2.05.47,2.93.87.89.4,1.66.99,2.27,1.75.62.77.93,1.87.93,3.27,0,1.07-.2,2.02-.61,2.81-.4.79-.96,1.46-1.66,2-.7.54-1.51.94-2.39,1.21-.89.27-1.83.4-2.81.4ZM363.79,395.1c.77,1.33,1.87,2.33,3.25,2.97,1.43.66,3.03,1,4.77,1,.95,0,1.87-.13,2.74-.39.86-.26,1.64-.65,2.31-1.17.67-.52,1.21-1.16,1.59-1.92.38-.75.58-1.66.58-2.69,0-1.34-.29-2.39-.87-3.11-.59-.73-1.32-1.29-2.18-1.68-.86-.39-1.83-.67-2.87-.85-1.06-.18-2.04-.39-2.92-.64-.89-.25-1.65-.61-2.26-1.05-.63-.46-.95-1.18-.95-2.12,0-.55.15-1.05.44-1.48.29-.42.65-.78,1.07-1.05.42-.27.9-.48,1.42-.63.52-.15,1.03-.23,1.51-.23,1.22,0,2.23.25,2.99.75.73.47,1.35,1.17,1.85,2.06l2.16-1.28c-.66-1.24-1.58-2.16-2.73-2.75-1.19-.6-2.63-.91-4.28-.91-.83,0-1.67.12-2.47.35-.8.23-1.54.59-2.18,1.06-.64.47-1.17,1.07-1.57,1.79-.4.71-.6,1.56-.6,2.53,0,1.25.29,2.23.87,2.91.59.69,1.32,1.23,2.18,1.62.87.39,1.83.68,2.87.87,1.06.19,2.05.42,2.92.69.89.27,1.65.64,2.26,1.12.63.49.95,1.24.95,2.21,0,.61-.15,1.15-.44,1.63-.29.47-.66.87-1.11,1.2-.45.33-.96.59-1.53.77-.57.18-1.14.27-1.71.27-1.22,0-2.39-.29-3.49-.87-1.06-.56-1.89-1.37-2.45-2.42l-2.12,1.44Z"/>
          </g>
        </g>
      </g>
    </g>
  </g>
</svg>